<svg version="1.2" xmlns="http://www.w3.org/2000/svg" viewBox="0 0 642 110" width="642" height="110">
	<title>MattBishopDanceLogo</title>
	<style>
		.s0 { fill: #dfdfdf } 
	</style>
	<path id="DANCE" class="s0" aria-label="DANCE"  d="m216.7 104q-0.7 0-1.3-0.4-0.4-0.6-0.4-1.3v-94.6q0-0.7 0.4-1.1 0.6-0.6 1.3-0.6h35q10.5 0 18.3 3.8 8 3.6 12.3 10.3 4.4 6.8 4.4 15.6v38.6q0 8.8-4.4 15.6-4.3 6.7-12.3 10.5-7.8 3.6-18.3 3.6zm18-17.6q0 0.7 0.7 0.7h17q6.4 0 10.3-4.4 4.1-4.3 4.2-11.6v-32.2q0-7.3-4-11.6-4-4.4-10.7-4.4h-16.8q-0.7 0-0.7 0.7zm123.8 17.7q-1.4 0-1.8-1.4l-4.2-13.7q-0.3-0.6-0.7-0.6h-34.5q-0.4 0-0.7 0.6l-4 13.7q-0.5 1.4-1.9 1.4h-17.7q-0.9 0-1.3-0.4-0.4-0.6-0.1-1.6l30.2-94.6q0.4-1.4 1.8-1.4h22q1.4 0 1.8 1.4l30.3 94.6q0.1 0.3 0.1 0.7 0 1.3-1.5 1.3zm-36.9-31.8q-0.1 0.8 0.6 0.8h24.6q0.9 0 0.6-0.8l-12.6-41.6q-0.1-0.5-0.4-0.4-0.3 0-0.4 0.4zm124.7-64.5q0-0.7 0.4-1.1 0.6-0.6 1.3-0.6h16.4q0.7 0 1.1 0.6 0.5 0.4 0.5 1.1v94.6q0 0.7-0.5 1.3-0.4 0.4-1.1 0.4h-15.9q-1.4 0-1.9-1.1l-36.3-59.9q-0.3-0.5-0.5-0.3-0.3 0-0.3 0.5l0.3 59.1q0 0.7-0.6 1.3-0.4 0.4-1.1 0.4h-16.4q-0.7 0-1.3-0.4-0.4-0.6-0.4-1.3v-94.6q0-0.7 0.4-1.1 0.6-0.6 1.3-0.6h15.8q1.4 0 2 1.1l36.1 59.7q0.3 0.4 0.6 0.4 0.2-0.2 0.2-0.7zm71.3 97.4q-10.9 0-19.2-4.2-8.2-4.3-12.7-12-4.5-7.7-4.5-17.8v-32.3q0-10.1 4.5-17.8 4.5-7.7 12.7-11.9 8.3-4.2 19.2-4.2 10.8 0 18.9 4 8.3 4 12.7 11.4 4.7 7.3 4.7 16.9 0 1.3-1.7 1.6l-16.4 0.9h-0.3q-1.4 0-1.4-1.5 0-7.4-4.6-11.9-4.5-4.5-11.9-4.5-7.6 0-12.2 4.5-4.5 4.5-4.5 11.9v33.7q0 7.3 4.5 11.8 4.6 4.5 12.2 4.5 7.4 0 11.9-4.5 4.6-4.5 4.6-11.8 0-1.5 1.7-1.5l16.4 0.7q0.7 0 1.1 0.4 0.6 0.4 0.6 1 0 9.7-4.7 17.1-4.4 7.4-12.7 11.5-8.1 4-18.9 4zm118.7-83.8q0 0.7-0.5 1.2-0.5 0.4-1.2 0.4h-45.9q-0.7 0-0.7 0.7v21.7q0 0.7 0.7 0.7h30.1q0.7 0 1.1 0.6 0.6 0.4 0.6 1.1v13.6q0 0.7-0.6 1.3-0.4 0.4-1.1 0.4h-30.1q-0.7 0-0.7 0.7v22.7q0 0.7 0.7 0.7h45.9q0.7 0 1.2 0.5 0.5 0.4 0.5 1.1v13.6q0 0.7-0.5 1.3-0.5 0.4-1.2 0.4h-64.6q-0.7 0-1.3-0.4-0.4-0.6-0.4-1.3v-94.6q0-0.7 0.4-1.1 0.6-0.6 1.3-0.6h64.6q0.7 0 1.2 0.6 0.5 0.4 0.5 1.1z"/>
	<path id="M" class="s0" aria-label="M"  d="m72 4.2q0.8-1.2 2.1-1.2h17.6q0.7 0 1.2 0.6 0.6 0.4 0.6 1.2v101.4q0 0.7-0.6 1.3-0.5 0.5-1.2 0.5h-17.6q-0.7 0-1.3-0.5-0.5-0.6-0.5-1.3v-66.2q0-0.6-0.3-0.6-0.3 0-0.6 0.5l-15.9 24.9q-0.7 1.2-2.1 1.2h-8.8q-1.4 0-2.1-1.2l-15.9-24.9q-0.3-0.5-0.6-0.3-0.3 0-0.3 0.6v66q0 0.7-0.6 1.3-0.5 0.5-1.2 0.5h-17.6q-0.7 0-1.3-0.5-0.5-0.6-0.5-1.3v-101.4q0-0.8 0.5-1.2 0.6-0.6 1.3-0.6h17.6q1.3 0 2.1 1.2l22.5 35q0.4 0.8 0.9 0z"/>
	<path id="B" class="s0" aria-label="B"  d="m134.9 53.3q-0.9 0.4 0 0.9 14.2 7.3 14.2 24.4 0 14.6-9.9 22.1-9.9 7.3-25.9 7.3h-38.9q-0.7 0-1.3-0.4-0.5-0.6-0.5-1.4v-101.4q0-0.7 0.5-1.2 0.6-0.6 1.3-0.6h37.7q35.5 0 35.5 28.8 0 15-12.7 21.5zm-40.4-32.1q-0.7 0-0.7 0.7v23.4q0 0.8 0.7 0.8h17.6q7 0 10.9-3.3 3.9-3.3 3.9-9 0-5.9-3.9-9.2-3.9-3.4-10.9-3.4zm18.7 68.5q6.9 0 10.8-3.4 3.9-3.6 3.9-9.8 0-6.1-3.9-9.6-3.9-3.6-10.9-3.6h-18.6q-0.8 0-0.8 0.8v24.9q0 0.7 0.8 0.7z"/>
	<path id="Shape 1" class="s0" d="m174 4h12v103h-12z"/>
</svg>